<svg width="303" height="315" fill="none" xmlns="http://www.w3.org/2000/svg"><g filter="url(#filter0_d_26_68)"><path d="M32 19c0-6.075 4.925-11 11-11h411c6.075 0 11 4.925 11 11v229c0 6.075-4.925 11-11 11H43c-6.075 0-11-4.925-11-11V19z" fill="url(#paint0_linear_26_68)"/></g><path d="M32 19c0-6.075 4.925-11 11-11h85v251H43c-6.075 0-11-4.925-11-11V19z" fill="url(#paint1_linear_26_68)"/><path d="M46 58.5a3.5 3.5 0 013.5-3.5h61a3.5 3.5 0 110 7h-61a3.5 3.5 0 01-3.5-3.5zm0 20a3.5 3.5 0 013.5-3.5h54a3.5 3.5 0 110 7h-54a3.5 3.5 0 01-3.5-3.5zm0 20a3.5 3.5 0 013.5-3.5h61a3.5 3.5 0 110 7h-61a3.5 3.5 0 01-3.5-3.5zm0 20a3.5 3.5 0 013.5-3.5h39a3.5 3.5 0 110 7h-39a3.5 3.5 0 01-3.5-3.5z" fill="#BABBDB"/><path d="M32 19c0-6.075 4.925-11 11-11h411c6.075 0 11 4.925 11 11v20H32V19z" fill="#242742"/><circle cx="54.5" cy="23.5" r="6.5" fill="#FF6464"/><circle cx="76.5" cy="23.5" r="6.5" fill="#FF9255"/><circle cx="98.5" cy="23.5" r="6.5" fill="#6BD5A8"/><defs><linearGradient id="paint0_linear_26_68" x1="248.5" y1="8" x2="248.5" y2="259" gradientUnits="userSpaceOnUse"><stop stop-color="#F8F8F8"/><stop offset="1" stop-color="#EEE"/></linearGradient><linearGradient id="paint1_linear_26_68" x1="80" y1="8" x2="80" y2="259" gradientUnits="userSpaceOnUse"><stop stop-color="#CACBE8"/><stop offset="1" stop-color="#EEE"/><stop offset="1" stop-color="#CACBE8"/></linearGradient><filter id="filter0_d_26_68" x="0" y="0" width="497" height="315" filterUnits="userSpaceOnUse" color-interpolation-filters="sRGB"><feFlood flood-opacity="0" result="BackgroundImageFix"/><feColorMatrix in="SourceAlpha" values="0 0 0 0 0 0 0 0 0 0 0 0 0 0 0 0 0 0 127 0" result="hardAlpha"/><feOffset dy="24"/><feGaussianBlur stdDeviation="16"/><feComposite in2="hardAlpha" operator="out"/><feColorMatrix values="0 0 0 0 0 0 0 0 0 0 0 0 0 0 0 0 0 0 0.1 0"/><feBlend in2="BackgroundImageFix" result="effect1_dropShadow_26_68"/><feBlend in="SourceGraphic" in2="effect1_dropShadow_26_68" result="shape"/></filter></defs></svg>