<svg width="105" height="152" fill="none" xmlns="http://www.w3.org/2000/svg"><path d="M0 4a4 4 0 014-4h120a4 4 0 014 4v144a4 4 0 01-4 4H4a4 4 0 01-4-4V4z" fill="#fff"/><path fill-rule="evenodd" clip-rule="evenodd" d="M64.5 108C82.45 108 97 93.45 97 75.5S82.45 43 64.5 43 32 57.55 32 75.5 46.55 108 64.5 108zm0 14c25.681 0 46.5-20.819 46.5-46.5S90.181 29 64.5 29 18 49.819 18 75.5 38.819 122 64.5 122z" fill="url(#paint0_linear_26_87)"/><path d="M47.61 70.719c0 2.27.588 4.068 1.765 5.39 1.177 1.313 2.781 1.97 4.813 1.97 1.885 0 3.359-.673 4.421-2.016 1.073-1.344 1.61-3.021 1.61-5.032h-1.172c0 1.146-.318 2.057-.953 2.735-.636.677-1.427 1.015-2.375 1.015-1.01 0-1.76-.338-2.25-1.015-.49-.688-.735-1.693-.735-3.016 0-1.51.245-2.594.735-3.25.5-.667 1.24-1 2.218-1 1.053 0 1.87.432 2.454 1.297.583.865.875 2.411.875 4.64l.14.626c0 3.302-.724 5.645-2.172 7.03-1.448 1.386-3.494 2.074-6.14 2.063h-.703v3.969h.812c4.25-.042 7.495-1.193 9.734-3.453 2.25-2.271 3.376-5.328 3.376-9.172v-.813c0-3.458-.777-5.958-2.329-7.5-1.552-1.552-3.557-2.328-6.015-2.328-2.469 0-4.438.714-5.907 2.141-1.468 1.427-2.203 3.333-2.203 5.719zM74.922 86h4.828V63.25h-4.516L65.125 77.813v3.437h17.14v-3.89h-4.937l-.812.078h-6.5l4.828-7.563H75v9.594l-.078.547V86z" fill="#242742"/><defs><linearGradient id="paint0_linear_26_87" x1="64.5" y1="29" x2="64.5" y2="122" gradientUnits="userSpaceOnUse"><stop stop-color="#FF6A3D"/><stop offset="1" stop-color="#FF5B66"/></linearGradient></defs></svg>