<svg width="98" height="130" fill="none" xmlns="http://www.w3.org/2000/svg"><path d="M0 4a4 4 0 014-4h90a4 4 0 014 4v122a4 4 0 01-4 4H4a4 4 0 01-4-4V4z" fill="#fff"/><mask id="a" style="mask-type:alpha" maskUnits="userSpaceOnUse" x="0" y="0" width="98" height="130"><path d="M0 4a4 4 0 014-4h90a4 4 0 014 4v122a4 4 0 01-4 4H4a4 4 0 01-4-4V4z" fill="#fff"/></mask><g mask="url(#a)"><path fill-rule="evenodd" clip-rule="evenodd" d="M108.121 28.878a3 3 0 01.001 4.243L82.847 58.41c-4.348 4.351-11.4 4.351-15.749 0a5.132 5.132 0 00-7.26 0L42.406 75.853a8.668 8.668 0 01-12.262 0 2.668 2.668 0 00-3.774 0l-32.248 32.268a3 3 0 01-4.244-4.242l32.248-32.267a8.668 8.668 0 0112.262 0 2.668 2.668 0 003.774 0L55.594 54.17c4.348-4.35 11.4-4.35 15.748 0a5.132 5.132 0 007.26 0l25.276-25.29a3 3 0 014.243-.002z" fill="url(#paint0_linear_26_82)"/></g><defs><linearGradient id="paint0_linear_26_82" x1="106.349" y1="27.512" x2="-1.771" y2="107.332" gradientUnits="userSpaceOnUse"><stop stop-color="#FF9049"/><stop offset="1" stop-color="#FF5E5E"/></linearGradient></defs></svg>