<svg width="375" height="284" fill="none" xmlns="http://www.w3.org/2000/svg"><mask id="a" style="mask-type:alpha" maskUnits="userSpaceOnUse" x="0" y="0" width="375" height="284"><path d="M0 0h375v268c0 8.837-7.163 16-16 16H16c-8.837 0-16-7.163-16-16V0z" fill="url(#paint0_linear_26_736)"/><path d="M0 0h375v268c0 8.837-7.163 16-16 16H16c-8.837 0-16-7.163-16-16V0z" stroke="#19182B"/></mask><g mask="url(#a)"><path d="M0 0h375v268c0 8.837-7.163 16-16 16H16c-8.837 0-16-7.163-16-16V0z" fill="url(#paint1_linear_26_736)"/><path d="M0 0h375v268c0 8.837-7.163 16-16 16H16c-8.837 0-16-7.163-16-16V0z" stroke="#19182B"/><g filter="url(#filter0_d_26_736)"><path d="M-16 101.838c0-7.762 6.292-14.054 14.054-14.054H204c7.762 0 14.054 6.292 14.054 14.054v128.108c0 7.762-6.292 14.054-14.054 14.054H-1.946C-9.708 244-16 237.708-16 229.946V101.838z" fill="#242742"/></g><g filter="url(#filter1_d_26_736)"><path d="M-7.351 101.838a5.946 5.946 0 015.946-5.946H203.46a5.946 5.946 0 015.945 5.946v128.108a5.946 5.946 0 01-5.945 5.946H-1.405a5.946 5.946 0 01-5.946-5.946V101.838z" fill="url(#paint2_linear_26_736)"/></g><mask id="b" style="mask-type:alpha" maskUnits="userSpaceOnUse" x="-8" y="95" width="218" height="141"><path d="M-7.351 101.838a5.946 5.946 0 015.946-5.946H203.46a5.946 5.946 0 015.945 5.946v128.108a5.946 5.946 0 01-5.945 5.946H-1.405a5.946 5.946 0 01-5.946-5.946V101.838z" fill="url(#paint3_linear_26_736)"/></mask><g mask="url(#b)"><circle cx="203.459" cy="227.784" r="85.405" fill="url(#paint4_linear_26_736)"/><circle cx="66.403" cy="77.214" r="85.405" transform="rotate(-135 66.403 77.214)" fill="url(#paint5_linear_26_736)"/></g><g filter="url(#filter2_d_26_736)"><path d="M157.513 41.838a5.947 5.947 0 015.946-5.946h222.163a5.947 5.947 0 015.946 5.946v123.784a5.947 5.947 0 01-5.946 5.946H163.459a5.947 5.947 0 01-5.946-5.946V41.838z" fill="url(#paint6_linear_26_736)"/></g><path d="M157.513 41.838a5.947 5.947 0 015.946-5.946h45.946v135.676h-45.946a5.947 5.947 0 01-5.946-5.946V41.838z" fill="url(#paint7_linear_26_736)"/><path d="M165.081 63.19c0-1.046.847-1.893 1.892-1.893h32.973a1.892 1.892 0 110 3.784h-32.973a1.892 1.892 0 01-1.892-1.892zm0 10.81c0-1.045.847-1.892 1.892-1.892h29.189a1.892 1.892 0 110 3.784h-29.189A1.892 1.892 0 01165.081 74zm0 10.81c0-1.044.847-1.891 1.892-1.891h32.973a1.892 1.892 0 110 3.784h-32.973a1.892 1.892 0 01-1.892-1.892zm0 10.812c0-1.045.847-1.892 1.892-1.892h21.081a1.892 1.892 0 110 3.783h-21.081a1.892 1.892 0 01-1.892-1.891z" fill="#BABBDB"/><path d="M157.513 41.838a5.947 5.947 0 015.946-5.946h222.163a5.947 5.947 0 015.946 5.946v10.81H157.513v-10.81z" fill="#242742"/><circle cx="169.676" cy="44.27" r="3.514" fill="#FF6464"/><circle cx="181.568" cy="44.27" r="3.514" fill="#FF9255"/><circle cx="193.459" cy="44.27" r="3.514" fill="#6BD5A8"/><path d="M220.757 26.162c0-1.194.968-2.162 2.162-2.162h48.649c1.194 0 2.162.968 2.162 2.162v65.946a2.162 2.162 0 01-2.162 2.162h-48.649a2.162 2.162 0 01-2.162-2.162V26.162z" fill="#fff"/><mask id="c" style="mask-type:alpha" maskUnits="userSpaceOnUse" x="220" y="24" width="54" height="71"><path d="M220.757 26.162c0-1.194.968-2.162 2.162-2.162h48.649c1.194 0 2.162.968 2.162 2.162v65.946a2.162 2.162 0 01-2.162 2.162h-48.649a2.162 2.162 0 01-2.162-2.162V26.162z" fill="#fff"/></mask><g mask="url(#c)"><path fill-rule="evenodd" clip-rule="evenodd" d="M279.201 39.61c.633.633.634 1.66.001 2.293l-13.663 13.67a6.017 6.017 0 01-8.512 0 2.775 2.775 0 00-3.925 0l-9.422 9.429a4.686 4.686 0 01-6.629 0 1.442 1.442 0 00-2.04 0L217.58 82.444a1.621 1.621 0 11-2.294-2.293l17.431-17.442a4.685 4.685 0 016.628 0 1.443 1.443 0 002.041 0l9.422-9.428a6.018 6.018 0 018.513 0 2.774 2.774 0 003.924 0l13.663-13.67a1.621 1.621 0 012.293-.001z" fill="url(#paint8_linear_26_736)"/></g><path d="M247.244 105.081c0-1.194.968-2.162 2.162-2.162h64.865c1.194 0 2.162.968 2.162 2.162v77.838a2.162 2.162 0 01-2.162 2.162h-64.865a2.162 2.162 0 01-2.162-2.162v-77.838z" fill="#fff"/><path fill-rule="evenodd" clip-rule="evenodd" d="M282.109 161.297c9.702 0 17.567-7.865 17.567-17.567 0-9.703-7.865-17.568-17.567-17.568-9.703 0-17.568 7.865-17.568 17.568 0 9.702 7.865 17.567 17.568 17.567zm0 7.568c13.882 0 25.135-11.253 25.135-25.135 0-13.882-11.253-25.135-25.135-25.135-13.882 0-25.135 11.253-25.135 25.135 0 13.882 11.253 25.135 25.135 25.135z" fill="url(#paint9_linear_26_736)"/><path d="M272.979 141.145c0 1.228.318 2.199.954 2.914.636.71 1.504 1.064 2.602 1.064 1.019 0 1.815-.363 2.39-1.089.58-.727.87-1.633.87-2.72h-.634c0 .62-.172 1.112-.515 1.478a1.687 1.687 0 01-1.284.549c-.546 0-.951-.183-1.216-.549-.265-.371-.397-.915-.397-1.63 0-.816.132-1.402.397-1.757.27-.36.67-.54 1.199-.54.569 0 1.011.234 1.326.701.316.467.473 1.303.473 2.508l.076.338c0 1.785-.391 3.052-1.174 3.801-.782.749-1.889 1.12-3.319 1.115h-.38v2.145h.439c2.297-.023 4.051-.645 5.262-1.867 1.216-1.227 1.824-2.88 1.824-4.957v-.44c0-1.869-.419-3.22-1.258-4.054-.839-.839-1.923-1.258-3.252-1.258-1.334 0-2.398.386-3.192 1.157s-1.191 1.802-1.191 3.091zm14.763 8.26h2.61v-12.297h-2.441l-5.464 7.872v1.858h9.265v-2.103h-2.669l-.439.042h-3.514l2.61-4.088h.085v5.186l-.043.296v3.234z" fill="#242742"/></g><defs><linearGradient id="paint0_linear_26_736" x1="375" y1="0" x2="247.723" y2="369.362" gradientUnits="userSpaceOnUse"><stop stop-color="#FF6A3A"/><stop offset="1" stop-color="#FF527B"/></linearGradient><linearGradient id="paint1_linear_26_736" x1="375" y1="0" x2="247.723" y2="369.362" gradientUnits="userSpaceOnUse"><stop stop-color="#FF6A3A"/><stop offset="1" stop-color="#FF527B"/></linearGradient><linearGradient id="paint2_linear_26_736" x1="41.027" y1="93.73" x2="207.514" y2="235.892" gradientUnits="userSpaceOnUse"><stop stop-color="#FF3E83"/><stop offset="1" stop-color="#FF9F2E"/></linearGradient><linearGradient id="paint3_linear_26_736" x1="41.027" y1="93.73" x2="207.514" y2="235.892" gradientUnits="userSpaceOnUse"><stop stop-color="#FF3E83"/><stop offset="1" stop-color="#FF9F2E"/></linearGradient><linearGradient id="paint4_linear_26_736" x1="203.459" y1="142.378" x2="203.459" y2="313.189" gradientUnits="userSpaceOnUse"><stop stop-color="#FFB443"/><stop offset="1" stop-color="#FF5B64" stop-opacity="0"/></linearGradient><linearGradient id="paint5_linear_26_736" x1="66.403" y1="-8.192" x2="66.403" y2="162.619" gradientUnits="userSpaceOnUse"><stop stop-color="#FFB443"/><stop offset="1" stop-color="#FF5B64" stop-opacity="0"/></linearGradient><linearGradient id="paint6_linear_26_736" x1="274.54" y1="35.892" x2="274.54" y2="171.568" gradientUnits="userSpaceOnUse"><stop stop-color="#F8F8F8"/><stop offset="1" stop-color="#EEE"/></linearGradient><linearGradient id="paint7_linear_26_736" x1="183.459" y1="35.892" x2="183.459" y2="171.568" gradientUnits="userSpaceOnUse"><stop stop-color="#CACBE8"/><stop offset="1" stop-color="#EEE"/><stop offset="1" stop-color="#CACBE8"/></linearGradient><linearGradient id="paint8_linear_26_736" x1="278.243" y1="38.871" x2="219.8" y2="82.017" gradientUnits="userSpaceOnUse"><stop stop-color="#FF9049"/><stop offset="1" stop-color="#FF5E5E"/></linearGradient><linearGradient id="paint9_linear_26_736" x1="282.109" y1="118.595" x2="282.109" y2="168.865" gradientUnits="userSpaceOnUse"><stop stop-color="#FF6A3D"/><stop offset="1" stop-color="#FF5B66"/></linearGradient><filter id="filter0_d_26_736" x="-48" y="79.784" width="298.054" height="220.216" filterUnits="userSpaceOnUse" color-interpolation-filters="sRGB"><feFlood flood-opacity="0" result="BackgroundImageFix"/><feColorMatrix in="SourceAlpha" values="0 0 0 0 0 0 0 0 0 0 0 0 0 0 0 0 0 0 127 0" result="hardAlpha"/><feOffset dy="24"/><feGaussianBlur stdDeviation="16"/><feComposite in2="hardAlpha" operator="out"/><feColorMatrix values="0 0 0 0 0 0 0 0 0 0 0 0 0 0 0 0 0 0 0.1 0"/><feBlend in2="BackgroundImageFix" result="effect1_dropShadow_26_736"/><feBlend in="SourceGraphic" in2="effect1_dropShadow_26_736" result="shape"/></filter><filter id="filter1_d_26_736" x="-39.351" y="87.892" width="280.757" height="204" filterUnits="userSpaceOnUse" color-interpolation-filters="sRGB"><feFlood flood-opacity="0" result="BackgroundImageFix"/><feColorMatrix in="SourceAlpha" values="0 0 0 0 0 0 0 0 0 0 0 0 0 0 0 0 0 0 127 0" result="hardAlpha"/><feOffset dy="24"/><feGaussianBlur stdDeviation="16"/><feComposite in2="hardAlpha" operator="out"/><feColorMatrix values="0 0 0 0 0 0 0 0 0 0 0 0 0 0 0 0 0 0 0.1 0"/><feBlend in2="BackgroundImageFix" result="effect1_dropShadow_26_736"/><feBlend in="SourceGraphic" in2="effect1_dropShadow_26_736" result="shape"/></filter><filter id="filter2_d_26_736" x="125.513" y="27.892" width="298.054" height="199.676" filterUnits="userSpaceOnUse" color-interpolation-filters="sRGB"><feFlood flood-opacity="0" result="BackgroundImageFix"/><feColorMatrix in="SourceAlpha" values="0 0 0 0 0 0 0 0 0 0 0 0 0 0 0 0 0 0 127 0" result="hardAlpha"/><feOffset dy="24"/><feGaussianBlur stdDeviation="16"/><feComposite in2="hardAlpha" operator="out"/><feColorMatrix values="0 0 0 0 0 0 0 0 0 0 0 0 0 0 0 0 0 0 0.1 0"/><feBlend in2="BackgroundImageFix" result="effect1_dropShadow_26_736"/><feBlend in="SourceGraphic" in2="effect1_dropShadow_26_736" result="shape"/></filter></defs></svg>