<svg width="273" height="353" fill="none" xmlns="http://www.w3.org/2000/svg"><g filter="url(#filter0_d_26_61)"><path d="M-192 34c0-14.36 11.641-26 26-26h381c14.359 0 26 11.64 26 26v237c0 14.359-11.641 26-26 26h-381c-14.359 0-26-11.641-26-26V34z" fill="#242742"/></g><g filter="url(#filter1_d_26_61)"><path d="M-176 34c0-6.075 4.925-11 11-11h379c6.075 0 11 4.925 11 11v237c0 6.075-4.925 11-11 11h-379c-6.075 0-11-4.925-11-11V34z" fill="url(#paint0_linear_26_61)"/></g><mask id="a" style="mask-type:alpha" maskUnits="userSpaceOnUse" x="-176" y="23" width="401" height="259"><path d="M-176 34c0-6.075 4.925-11 11-11h379c6.075 0 11 4.925 11 11v237c0 6.075-4.925 11-11 11h-379c-6.075 0-11-4.925-11-11V34z" fill="url(#paint1_linear_26_61)"/></mask><g mask="url(#a)"><circle cx="214" cy="267" r="158" fill="url(#paint2_linear_26_61)"/><circle cx="-39.554" cy="-11.554" r="158" transform="rotate(-135 -39.554 -11.554)" fill="url(#paint3_linear_26_61)"/></g><defs><linearGradient id="paint0_linear_26_61" x1="-86.5" y1="19" x2="221.5" y2="282" gradientUnits="userSpaceOnUse"><stop stop-color="#FF3E83"/><stop offset="1" stop-color="#FF9F2E"/></linearGradient><linearGradient id="paint1_linear_26_61" x1="-86.5" y1="19" x2="221.5" y2="282" gradientUnits="userSpaceOnUse"><stop stop-color="#FF3E83"/><stop offset="1" stop-color="#FF9F2E"/></linearGradient><linearGradient id="paint2_linear_26_61" x1="214" y1="109" x2="214" y2="425" gradientUnits="userSpaceOnUse"><stop stop-color="#FFB443"/><stop offset="1" stop-color="#FF5B64" stop-opacity="0"/></linearGradient><linearGradient id="paint3_linear_26_61" x1="-39.554" y1="-169.554" x2="-39.554" y2="146.446" gradientUnits="userSpaceOnUse"><stop stop-color="#FFB443"/><stop offset="1" stop-color="#FF5B64" stop-opacity="0"/></linearGradient><filter id="filter0_d_26_61" x="-224" y="0" width="497" height="353" filterUnits="userSpaceOnUse" color-interpolation-filters="sRGB"><feFlood flood-opacity="0" result="BackgroundImageFix"/><feColorMatrix in="SourceAlpha" values="0 0 0 0 0 0 0 0 0 0 0 0 0 0 0 0 0 0 127 0" result="hardAlpha"/><feOffset dy="24"/><feGaussianBlur stdDeviation="16"/><feComposite in2="hardAlpha" operator="out"/><feColorMatrix values="0 0 0 0 0 0 0 0 0 0 0 0 0 0 0 0 0 0 0.1 0"/><feBlend in2="BackgroundImageFix" result="effect1_dropShadow_26_61"/><feBlend in="SourceGraphic" in2="effect1_dropShadow_26_61" result="shape"/></filter><filter id="filter1_d_26_61" x="-208" y="15" width="465" height="323" filterUnits="userSpaceOnUse" color-interpolation-filters="sRGB"><feFlood flood-opacity="0" result="BackgroundImageFix"/><feColorMatrix in="SourceAlpha" values="0 0 0 0 0 0 0 0 0 0 0 0 0 0 0 0 0 0 127 0" result="hardAlpha"/><feOffset dy="24"/><feGaussianBlur stdDeviation="16"/><feComposite in2="hardAlpha" operator="out"/><feColorMatrix values="0 0 0 0 0 0 0 0 0 0 0 0 0 0 0 0 0 0 0.1 0"/><feBlend in2="BackgroundImageFix" result="effect1_dropShadow_26_61"/><feBlend in="SourceGraphic" in2="effect1_dropShadow_26_61" result="shape"/></filter></defs></svg>