<svg width="400" height="593" fill="none" xmlns="http://www.w3.org/2000/svg"><mask id="a" style="mask-type:alpha" maskUnits="userSpaceOnUse" x="0" y="0" width="400" height="593"><rect width="400" height="593" rx="16" fill="url(#paint0_linear_26_56)"/><rect width="400" height="593" rx="16" stroke="#19182B"/></mask><g mask="url(#a)"><rect width="400" height="593" rx="16" fill="url(#paint1_linear_26_56)"/><rect width="400" height="593" rx="16" stroke="#19182B"/><g filter="url(#filter0_d_26_56)"><path d="M-192 237c0-14.359 11.641-26 26-26h381c14.359 0 26 11.641 26 26v237c0 14.359-11.641 26-26 26h-381c-14.359 0-26-11.641-26-26V237z" fill="#242742"/></g><g filter="url(#filter1_d_26_56)"><path d="M-176 237c0-6.075 4.925-11 11-11h379c6.075 0 11 4.925 11 11v237c0 6.075-4.925 11-11 11h-379c-6.075 0-11-4.925-11-11V237z" fill="url(#paint2_linear_26_56)"/></g><mask id="b" style="mask-type:alpha" maskUnits="userSpaceOnUse" x="-176" y="226" width="401" height="259"><path d="M-176 237c0-6.075 4.925-11 11-11h379c6.075 0 11 4.925 11 11v237c0 6.075-4.925 11-11 11h-379c-6.075 0-11-4.925-11-11V237z" fill="url(#paint3_linear_26_56)"/></mask><g mask="url(#b)"><circle cx="214" cy="470" r="158" fill="url(#paint4_linear_26_56)"/><circle cx="-39.554" cy="191.446" r="158" transform="rotate(-135 -39.554 191.446)" fill="url(#paint5_linear_26_56)"/></g><g filter="url(#filter2_d_26_56)"><path d="M129 126c0-6.075 4.925-11 11-11h411c6.075 0 11 4.925 11 11v229c0 6.075-4.925 11-11 11H140c-6.075 0-11-4.925-11-11V126z" fill="url(#paint6_linear_26_56)"/></g><path d="M129 126c0-6.075 4.925-11 11-11h85v251h-85c-6.075 0-11-4.925-11-11V126z" fill="url(#paint7_linear_26_56)"/><path d="M143 165.5a3.5 3.5 0 013.5-3.5h61a3.5 3.5 0 110 7h-61a3.5 3.5 0 01-3.5-3.5zm0 20a3.5 3.5 0 013.5-3.5h54a3.5 3.5 0 110 7h-54a3.5 3.5 0 01-3.5-3.5zm0 20a3.5 3.5 0 013.5-3.5h61a3.5 3.5 0 110 7h-61a3.5 3.5 0 01-3.5-3.5zm0 20a3.5 3.5 0 013.5-3.5h39a3.5 3.5 0 110 7h-39a3.5 3.5 0 01-3.5-3.5z" fill="#BABBDB"/><path d="M129 126c0-6.075 4.925-11 11-11h411c6.075 0 11 4.925 11 11v20H129v-20z" fill="#242742"/><circle cx="151.5" cy="130.5" r="6.5" fill="#FF6464"/><circle cx="173.5" cy="130.5" r="6.5" fill="#FF9255"/><circle cx="195.5" cy="130.5" r="6.5" fill="#6BD5A8"/><path d="M246 97a4 4 0 014-4h90a4 4 0 014 4v122a4 4 0 01-4 4h-90a4 4 0 01-4-4V97z" fill="#fff"/><mask id="c" style="mask-type:alpha" maskUnits="userSpaceOnUse" x="246" y="93" width="98" height="130"><path d="M246 97a4 4 0 014-4h90a4 4 0 014 4v122a4 4 0 01-4 4h-90a4 4 0 01-4-4V97z" fill="#fff"/></mask><g mask="url(#c)"><path fill-rule="evenodd" clip-rule="evenodd" d="M354.121 121.878a3 3 0 01.001 4.243l-25.275 25.29c-4.348 4.351-11.401 4.351-15.749 0a5.133 5.133 0 00-7.26 0l-17.432 17.442a8.667 8.667 0 01-12.262 0 2.669 2.669 0 00-3.774 0l-32.248 32.268a3 3 0 01-4.244-4.242l32.248-32.267a8.667 8.667 0 0112.262 0 2.667 2.667 0 003.774 0l17.432-17.442c4.348-4.351 11.4-4.351 15.748 0a5.133 5.133 0 007.261 0l25.275-25.291a3 3 0 014.243-.001z" fill="url(#paint8_linear_26_56)"/></g><path d="M295 243a4 4 0 014-4h120a4 4 0 014 4v144a4 4 0 01-4 4H299a4 4 0 01-4-4V243z" fill="#fff"/><path fill-rule="evenodd" clip-rule="evenodd" d="M359.5 347c17.949 0 32.5-14.551 32.5-32.5 0-17.949-14.551-32.5-32.5-32.5-17.949 0-32.5 14.551-32.5 32.5 0 17.949 14.551 32.5 32.5 32.5zm0 14c25.681 0 46.5-20.819 46.5-46.5S385.181 268 359.5 268 313 288.819 313 314.5s20.819 46.5 46.5 46.5z" fill="url(#paint9_linear_26_56)"/><path d="M342.609 309.719c0 2.271.589 4.067 1.766 5.39 1.177 1.313 2.781 1.969 4.813 1.969 1.885 0 3.359-.672 4.421-2.016 1.073-1.343 1.61-3.02 1.61-5.031h-1.172c0 1.146-.318 2.058-.953 2.735-.636.677-1.427 1.015-2.375 1.015-1.011 0-1.761-.338-2.25-1.015-.49-.688-.735-1.693-.735-3.016 0-1.51.245-2.594.735-3.25.5-.667 1.239-1 2.219-1 1.052 0 1.869.432 2.453 1.297.583.864.875 2.411.875 4.641l.14.624c0 3.303-.724 5.646-2.172 7.032-1.448 1.385-3.494 2.073-6.14 2.062h-.703v3.969h.812c4.25-.042 7.495-1.193 9.735-3.453 2.25-2.271 3.374-5.328 3.374-9.172v-.812c0-3.459-.776-5.959-2.328-7.5-1.552-1.553-3.557-2.329-6.015-2.329-2.469 0-4.438.714-5.907 2.141-1.468 1.427-2.203 3.333-2.203 5.719zM369.922 325h4.828v-22.75h-4.516l-10.109 14.562v3.438h17.141v-3.891h-4.938l-.812.079h-6.5l4.828-7.563H370v9.594l-.078.547V325z" fill="#242742"/></g><defs><linearGradient id="paint0_linear_26_56" x1="400" y1="0" x2="0" y2="593" gradientUnits="userSpaceOnUse"><stop stop-color="#FF6A3A"/><stop offset="1" stop-color="#FF527B"/></linearGradient><linearGradient id="paint1_linear_26_56" x1="400" y1="0" x2="0" y2="593" gradientUnits="userSpaceOnUse"><stop stop-color="#FF6A3A"/><stop offset="1" stop-color="#FF527B"/></linearGradient><linearGradient id="paint2_linear_26_56" x1="-86.5" y1="222" x2="221.5" y2="485" gradientUnits="userSpaceOnUse"><stop stop-color="#FF3E83"/><stop offset="1" stop-color="#FF9F2E"/></linearGradient><linearGradient id="paint3_linear_26_56" x1="-86.5" y1="222" x2="221.5" y2="485" gradientUnits="userSpaceOnUse"><stop stop-color="#FF3E83"/><stop offset="1" stop-color="#FF9F2E"/></linearGradient><linearGradient id="paint4_linear_26_56" x1="214" y1="312" x2="214" y2="628" gradientUnits="userSpaceOnUse"><stop stop-color="#FFB443"/><stop offset="1" stop-color="#FF5B64" stop-opacity="0"/></linearGradient><linearGradient id="paint5_linear_26_56" x1="-39.554" y1="33.446" x2="-39.554" y2="349.446" gradientUnits="userSpaceOnUse"><stop stop-color="#FFB443"/><stop offset="1" stop-color="#FF5B64" stop-opacity="0"/></linearGradient><linearGradient id="paint6_linear_26_56" x1="345.5" y1="115" x2="345.5" y2="366" gradientUnits="userSpaceOnUse"><stop stop-color="#F8F8F8"/><stop offset="1" stop-color="#EEE"/></linearGradient><linearGradient id="paint7_linear_26_56" x1="177" y1="115" x2="177" y2="366" gradientUnits="userSpaceOnUse"><stop stop-color="#CACBE8"/><stop offset="1" stop-color="#EEE"/><stop offset="1" stop-color="#CACBE8"/></linearGradient><linearGradient id="paint8_linear_26_56" x1="352.349" y1="120.512" x2="244.229" y2="200.332" gradientUnits="userSpaceOnUse"><stop stop-color="#FF9049"/><stop offset="1" stop-color="#FF5E5E"/></linearGradient><linearGradient id="paint9_linear_26_56" x1="359.5" y1="268" x2="359.5" y2="361" gradientUnits="userSpaceOnUse"><stop stop-color="#FF6A3D"/><stop offset="1" stop-color="#FF5B66"/></linearGradient><filter id="filter0_d_26_56" x="-224" y="203" width="497" height="353" filterUnits="userSpaceOnUse" color-interpolation-filters="sRGB"><feFlood flood-opacity="0" result="BackgroundImageFix"/><feColorMatrix in="SourceAlpha" values="0 0 0 0 0 0 0 0 0 0 0 0 0 0 0 0 0 0 127 0" result="hardAlpha"/><feOffset dy="24"/><feGaussianBlur stdDeviation="16"/><feComposite in2="hardAlpha" operator="out"/><feColorMatrix values="0 0 0 0 0 0 0 0 0 0 0 0 0 0 0 0 0 0 0.1 0"/><feBlend in2="BackgroundImageFix" result="effect1_dropShadow_26_56"/><feBlend in="SourceGraphic" in2="effect1_dropShadow_26_56" result="shape"/></filter><filter id="filter1_d_26_56" x="-208" y="218" width="465" height="323" filterUnits="userSpaceOnUse" color-interpolation-filters="sRGB"><feFlood flood-opacity="0" result="BackgroundImageFix"/><feColorMatrix in="SourceAlpha" values="0 0 0 0 0 0 0 0 0 0 0 0 0 0 0 0 0 0 127 0" result="hardAlpha"/><feOffset dy="24"/><feGaussianBlur stdDeviation="16"/><feComposite in2="hardAlpha" operator="out"/><feColorMatrix values="0 0 0 0 0 0 0 0 0 0 0 0 0 0 0 0 0 0 0.1 0"/><feBlend in2="BackgroundImageFix" result="effect1_dropShadow_26_56"/><feBlend in="SourceGraphic" in2="effect1_dropShadow_26_56" result="shape"/></filter><filter id="filter2_d_26_56" x="97" y="107" width="497" height="315" filterUnits="userSpaceOnUse" color-interpolation-filters="sRGB"><feFlood flood-opacity="0" result="BackgroundImageFix"/><feColorMatrix in="SourceAlpha" values="0 0 0 0 0 0 0 0 0 0 0 0 0 0 0 0 0 0 127 0" result="hardAlpha"/><feOffset dy="24"/><feGaussianBlur stdDeviation="16"/><feComposite in2="hardAlpha" operator="out"/><feColorMatrix values="0 0 0 0 0 0 0 0 0 0 0 0 0 0 0 0 0 0 0.1 0"/><feBlend in2="BackgroundImageFix" result="effect1_dropShadow_26_56"/><feBlend in="SourceGraphic" in2="effect1_dropShadow_26_56" result="shape"/></filter></defs></svg>