<svg width="70" height="84" fill="none" xmlns="http://www.w3.org/2000/svg"><path d="M.244 3.081C.244 1.887 1.212.92 2.406.92h64.865c1.194 0 2.162.968 2.162 2.162V80.92a2.162 2.162 0 01-2.162 2.162H2.406A2.162 2.162 0 01.244 80.92V3.08z" fill="#fff"/><path fill-rule="evenodd" clip-rule="evenodd" d="M35.109 59.297c9.702 0 17.567-7.865 17.567-17.567S44.811 24.162 35.11 24.162c-9.703 0-17.568 7.866-17.568 17.568 0 9.702 7.866 17.567 17.568 17.567zm0 7.568c13.881 0 25.135-11.253 25.135-25.135 0-13.882-11.254-25.135-25.135-25.135-13.882 0-25.135 11.253-25.135 25.135 0 13.882 11.253 25.135 25.135 25.135z" fill="url(#paint0_linear_26_730)"/><path d="M25.979 39.145c0 1.228.318 2.199.954 2.914.636.71 1.503 1.064 2.602 1.064 1.019 0 1.815-.363 2.39-1.09.58-.726.87-1.632.87-2.719h-.634c0 .62-.172 1.112-.515 1.478a1.688 1.688 0 01-1.284.55c-.546 0-.951-.184-1.216-.55-.265-.371-.397-.915-.397-1.63 0-.816.132-1.402.397-1.757.27-.36.67-.54 1.2-.54.568 0 1.01.233 1.325.7.316.468.473 1.304.473 2.51l.076.337c0 1.785-.391 3.052-1.174 3.8-.782.75-1.889 1.121-3.319 1.116h-.38v2.145h.44c2.297-.023 4.05-.645 5.261-1.867 1.216-1.227 1.824-2.88 1.824-4.957v-.44c0-1.869-.42-3.22-1.258-4.054-.84-.839-1.923-1.258-3.252-1.258-1.334 0-2.398.386-3.192 1.157s-1.191 1.802-1.191 3.091zm14.763 8.26h2.61V35.108h-2.44l-5.465 7.872v1.858h9.265v-2.103h-2.67l-.438.042H38.09l2.61-4.088h.084v5.186l-.042.296v3.234z" fill="#242742"/><defs><linearGradient id="paint0_linear_26_730" x1="35.109" y1="16.595" x2="35.109" y2="66.865" gradientUnits="userSpaceOnUse"><stop stop-color="#FF6A3D"/><stop offset="1" stop-color="#FF5B66"/></linearGradient></defs></svg>