<svg width="251" height="205" fill="none" xmlns="http://www.w3.org/2000/svg"><g filter="url(#filter0_d_26_703)"><path d="M-16 22.838c0-7.762 6.292-14.054 14.054-14.054H204c7.762 0 14.054 6.292 14.054 14.054v128.108c0 7.762-6.292 14.054-14.054 14.054H-1.946C-9.708 165-16 158.708-16 150.946V22.838z" fill="#242742"/></g><g filter="url(#filter1_d_26_703)"><path d="M-7.351 22.838a5.946 5.946 0 015.946-5.946H203.46a5.946 5.946 0 015.945 5.946v128.108a5.946 5.946 0 01-5.945 5.946H-1.405a5.946 5.946 0 01-5.946-5.946V22.838z" fill="url(#paint0_linear_26_703)"/></g><mask id="a" style="mask-type:alpha" maskUnits="userSpaceOnUse" x="-8" y="16" width="218" height="141"><path d="M-7.351 22.838a5.946 5.946 0 015.946-5.946H203.46a5.946 5.946 0 015.945 5.946v128.108a5.946 5.946 0 01-5.945 5.946H-1.405a5.946 5.946 0 01-5.946-5.946V22.838z" fill="url(#paint1_linear_26_703)"/></mask><g mask="url(#a)"><circle cx="203.459" cy="148.784" r="85.405" fill="url(#paint2_linear_26_703)"/><circle cx="66.403" cy="-1.786" r="85.405" transform="rotate(-135 66.403 -1.786)" fill="url(#paint3_linear_26_703)"/></g><defs><linearGradient id="paint0_linear_26_703" x1="41.027" y1="14.73" x2="207.514" y2="156.892" gradientUnits="userSpaceOnUse"><stop stop-color="#FF3E83"/><stop offset="1" stop-color="#FF9F2E"/></linearGradient><linearGradient id="paint1_linear_26_703" x1="41.027" y1="14.73" x2="207.514" y2="156.892" gradientUnits="userSpaceOnUse"><stop stop-color="#FF3E83"/><stop offset="1" stop-color="#FF9F2E"/></linearGradient><linearGradient id="paint2_linear_26_703" x1="203.459" y1="63.378" x2="203.459" y2="234.189" gradientUnits="userSpaceOnUse"><stop stop-color="#FFB443"/><stop offset="1" stop-color="#FF5B64" stop-opacity="0"/></linearGradient><linearGradient id="paint3_linear_26_703" x1="66.403" y1="-87.192" x2="66.403" y2="83.619" gradientUnits="userSpaceOnUse"><stop stop-color="#FFB443"/><stop offset="1" stop-color="#FF5B64" stop-opacity="0"/></linearGradient><filter id="filter0_d_26_703" x="-48" y=".784" width="298.054" height="220.216" filterUnits="userSpaceOnUse" color-interpolation-filters="sRGB"><feFlood flood-opacity="0" result="BackgroundImageFix"/><feColorMatrix in="SourceAlpha" values="0 0 0 0 0 0 0 0 0 0 0 0 0 0 0 0 0 0 127 0" result="hardAlpha"/><feOffset dy="24"/><feGaussianBlur stdDeviation="16"/><feComposite in2="hardAlpha" operator="out"/><feColorMatrix values="0 0 0 0 0 0 0 0 0 0 0 0 0 0 0 0 0 0 0.1 0"/><feBlend in2="BackgroundImageFix" result="effect1_dropShadow_26_703"/><feBlend in="SourceGraphic" in2="effect1_dropShadow_26_703" result="shape"/></filter><filter id="filter1_d_26_703" x="-39.351" y="8.892" width="280.757" height="204" filterUnits="userSpaceOnUse" color-interpolation-filters="sRGB"><feFlood flood-opacity="0" result="BackgroundImageFix"/><feColorMatrix in="SourceAlpha" values="0 0 0 0 0 0 0 0 0 0 0 0 0 0 0 0 0 0 127 0" result="hardAlpha"/><feOffset dy="24"/><feGaussianBlur stdDeviation="16"/><feComposite in2="hardAlpha" operator="out"/><feColorMatrix values="0 0 0 0 0 0 0 0 0 0 0 0 0 0 0 0 0 0 0.1 0"/><feBlend in2="BackgroundImageFix" result="effect1_dropShadow_26_703"/><feBlend in="SourceGraphic" in2="effect1_dropShadow_26_703" result="shape"/></filter></defs></svg>