<svg width="250" height="201" fill="none" xmlns="http://www.w3.org/2000/svg"><g filter="url(#filter0_d_26_711)"><path d="M32.513 14.838a5.946 5.946 0 015.946-5.946h222.163a5.947 5.947 0 015.946 5.946v123.784a5.947 5.947 0 01-5.946 5.946H38.459a5.947 5.947 0 01-5.946-5.946V14.838z" fill="url(#paint0_linear_26_711)"/></g><path d="M32.513 14.838a5.946 5.946 0 015.946-5.946h45.946v135.676H38.46a5.947 5.947 0 01-5.946-5.946V14.838z" fill="url(#paint1_linear_26_711)"/><path d="M40.081 36.19c0-1.046.847-1.893 1.892-1.893h32.973a1.892 1.892 0 010 3.784H41.973a1.892 1.892 0 01-1.892-1.892zm0 10.81c0-1.045.847-1.892 1.892-1.892h29.19a1.892 1.892 0 010 3.784h-29.19A1.892 1.892 0 0140.08 47zm0 10.81c0-1.044.847-1.891 1.892-1.891h32.973a1.892 1.892 0 110 3.784H41.973a1.892 1.892 0 01-1.892-1.892zm0 10.812c0-1.045.847-1.892 1.892-1.892h21.081a1.892 1.892 0 110 3.783H41.973a1.892 1.892 0 01-1.892-1.891z" fill="#BABBDB"/><path d="M32.513 14.838a5.946 5.946 0 015.946-5.946h222.163a5.947 5.947 0 015.946 5.946v10.81H32.513v-10.81z" fill="#242742"/><circle cx="44.676" cy="17.27" r="3.514" fill="#FF6464"/><circle cx="56.568" cy="17.27" r="3.514" fill="#FF9255"/><circle cx="68.459" cy="17.27" r="3.514" fill="#6BD5A8"/><defs><linearGradient id="paint0_linear_26_711" x1="149.54" y1="8.892" x2="149.54" y2="144.568" gradientUnits="userSpaceOnUse"><stop stop-color="#F8F8F8"/><stop offset="1" stop-color="#EEE"/></linearGradient><linearGradient id="paint1_linear_26_711" x1="58.459" y1="8.892" x2="58.459" y2="144.568" gradientUnits="userSpaceOnUse"><stop stop-color="#CACBE8"/><stop offset="1" stop-color="#EEE"/><stop offset="1" stop-color="#CACBE8"/></linearGradient><filter id="filter0_d_26_711" x=".513" y=".892" width="298.054" height="199.676" filterUnits="userSpaceOnUse" color-interpolation-filters="sRGB"><feFlood flood-opacity="0" result="BackgroundImageFix"/><feColorMatrix in="SourceAlpha" values="0 0 0 0 0 0 0 0 0 0 0 0 0 0 0 0 0 0 127 0" result="hardAlpha"/><feOffset dy="24"/><feGaussianBlur stdDeviation="16"/><feComposite in2="hardAlpha" operator="out"/><feColorMatrix values="0 0 0 0 0 0 0 0 0 0 0 0 0 0 0 0 0 0 0.1 0"/><feBlend in2="BackgroundImageFix" result="effect1_dropShadow_26_711"/><feBlend in="SourceGraphic" in2="effect1_dropShadow_26_711" result="shape"/></filter></defs></svg>