<svg width="62" height="71" fill="none" xmlns="http://www.w3.org/2000/svg"><path d="M4.757 2.162C4.757.968 5.725 0 6.919 0h48.649c1.194 0 2.162.968 2.162 2.162v65.946a2.162 2.162 0 01-2.162 2.162H6.919a2.162 2.162 0 01-2.162-2.162V2.162z" fill="#fff"/><mask id="a" style="mask-type:alpha" maskUnits="userSpaceOnUse" x="4" y="0" width="54" height="71"><path d="M4.757 2.162C4.757.968 5.725 0 6.919 0h48.649c1.194 0 2.162.968 2.162 2.162v65.946a2.162 2.162 0 01-2.162 2.162H6.919a2.162 2.162 0 01-2.162-2.162V2.162z" fill="#fff"/></mask><g mask="url(#a)"><path fill-rule="evenodd" clip-rule="evenodd" d="M63.2 15.61a1.62 1.62 0 01.002 2.293l-13.663 13.67a6.018 6.018 0 01-8.513 0 2.774 2.774 0 00-3.924 0l-9.422 9.429a4.685 4.685 0 01-6.629 0 1.442 1.442 0 00-2.04 0L1.58 58.444A1.622 1.622 0 11-.714 56.15l17.431-17.442a4.685 4.685 0 016.628 0 1.442 1.442 0 002.04 0l9.423-9.428a6.018 6.018 0 018.513 0 2.774 2.774 0 003.924 0l13.663-13.67a1.622 1.622 0 012.293-.001z" fill="url(#paint0_linear_26_725)"/></g><defs><linearGradient id="paint0_linear_26_725" x1="62.243" y1="14.871" x2="3.8" y2="58.017" gradientUnits="userSpaceOnUse"><stop stop-color="#FF9049"/><stop offset="1" stop-color="#FF5E5E"/></linearGradient></defs></svg>