<svg width="303" height="315" viewBox="0 0 303 315" fill="none" xmlns="http://www.w3.org/2000/svg">
<g filter="url(#filter0_d_26_68)">
<path d="M32 19C32 12.9248 36.9249 7.99998 43 7.99998H454C460.075 7.99998 465 12.9249 465 19V248C465 254.075 460.075 259 454 259H43C36.9249 259 32 254.075 32 248V19Z" fill="url(#paint0_linear_26_68)"/>
</g>
<path d="M32 19C32 12.9248 36.9249 7.99998 43 7.99998H128V259H43C36.9249 259 32 254.075 32 248V19Z" fill="url(#paint1_linear_26_68)"/>
<path d="M46 58.5C46 56.567 47.567 55 49.5 55H110.5C112.433 55 114 56.567 114 58.5C114 60.433 112.433 62 110.5 62H49.5C47.567 62 46 60.433 46 58.5Z" fill="#BABBDB"/>
<path d="M46 78.5C46 76.567 47.567 75 49.5 75H103.5C105.433 75 107 76.567 107 78.5C107 80.433 105.433 82 103.5 82H49.5C47.567 82 46 80.433 46 78.5Z" fill="#BABBDB"/>
<path d="M46 98.5C46 96.567 47.567 95 49.5 95H110.5C112.433 95 114 96.567 114 98.5C114 100.433 112.433 102 110.5 102H49.5C47.567 102 46 100.433 46 98.5Z" fill="#BABBDB"/>
<path d="M46 118.5C46 116.567 47.567 115 49.5 115H88.5C90.433 115 92 116.567 92 118.5C92 120.433 90.433 122 88.5 122H49.5C47.567 122 46 120.433 46 118.5Z" fill="#BABBDB"/>
<path d="M32 19C32 12.9249 36.9249 8 43 8H454C460.075 8 465 12.9249 465 19V39H32V19Z" fill="#242742"/>
<circle cx="54.5" cy="23.5" r="6.5" fill="#FF6464"/>
<circle cx="76.5" cy="23.5" r="6.5" fill="#FF9255"/>
<circle cx="98.5" cy="23.5" r="6.5" fill="#6BD5A8"/>
<defs>
<filter id="filter0_d_26_68" x="0" y="-1.52588e-05" width="497" height="315" filterUnits="userSpaceOnUse" color-interpolation-filters="sRGB">
<feFlood flood-opacity="0" result="BackgroundImageFix"/>
<feColorMatrix in="SourceAlpha" type="matrix" values="0 0 0 0 0 0 0 0 0 0 0 0 0 0 0 0 0 0 127 0" result="hardAlpha"/>
<feOffset dy="24"/>
<feGaussianBlur stdDeviation="16"/>
<feComposite in2="hardAlpha" operator="out"/>
<feColorMatrix type="matrix" values="0 0 0 0 0 0 0 0 0 0 0 0 0 0 0 0 0 0 0.1 0"/>
<feBlend mode="normal" in2="BackgroundImageFix" result="effect1_dropShadow_26_68"/>
<feBlend mode="normal" in="SourceGraphic" in2="effect1_dropShadow_26_68" result="shape"/>
</filter>
<linearGradient id="paint0_linear_26_68" x1="248.5" y1="8" x2="248.5" y2="259" gradientUnits="userSpaceOnUse">
<stop stop-color="#F8F8F8"/>
<stop offset="1" stop-color="#EEEEEE"/>
</linearGradient>
<linearGradient id="paint1_linear_26_68" x1="80" y1="8" x2="80" y2="259" gradientUnits="userSpaceOnUse">
<stop stop-color="#CACBE8"/>
<stop offset="1" stop-color="#EEEEEE"/>
<stop offset="1" stop-color="#CACBE8"/>
</linearGradient>
</defs>
</svg>
