<svg width="70" height="84" viewBox="0 0 70 84" fill="none" xmlns="http://www.w3.org/2000/svg">
<path d="M0.243896 3.08111C0.243896 1.88698 1.21193 0.918945 2.40606 0.918945H67.2709C68.4651 0.918945 69.4331 1.88698 69.4331 3.08111V80.9189C69.4331 82.1131 68.4651 83.0811 67.2709 83.0811H2.40606C1.21193 83.0811 0.243896 82.1131 0.243896 80.9189V3.08111Z" fill="white"/>
<path fill-rule="evenodd" clip-rule="evenodd" d="M35.1088 59.2973C44.8111 59.2973 52.6763 51.4321 52.6763 41.7298C52.6763 32.0275 44.8111 24.1622 35.1088 24.1622C25.4065 24.1622 17.5412 32.0275 17.5412 41.7298C17.5412 51.4321 25.4065 59.2973 35.1088 59.2973ZM35.1088 66.8649C48.9905 66.8649 60.2439 55.6115 60.2439 41.7298C60.2439 27.848 48.9905 16.5946 35.1088 16.5946C21.227 16.5946 9.97363 27.848 9.97363 41.7298C9.97363 55.6115 21.227 66.8649 35.1088 66.8649Z" fill="url(#paint0_linear_26_730)"/>
<path d="M25.9788 39.1453C25.9788 40.3728 26.2969 41.344 26.9332 42.0591C27.5694 42.7686 28.4365 43.1233 29.5345 43.1233C30.5536 43.1233 31.3504 42.7601 31.9247 42.0338C32.5047 41.3074 32.7946 40.4009 32.7946 39.3142H32.1612C32.1612 39.9336 31.9895 40.4263 31.646 40.7922C31.3025 41.1582 30.8746 41.3412 30.3622 41.3412C29.816 41.3412 29.4106 41.1582 29.146 40.7922C28.8814 40.4206 28.749 39.8773 28.749 39.1622C28.749 38.3457 28.8814 37.7601 29.146 37.4054C29.4163 37.0451 29.816 36.8649 30.3453 36.8649C30.914 36.8649 31.356 37.0985 31.6713 37.5659C31.9866 38.0332 32.1443 38.8694 32.1443 40.0743L32.2203 40.4122C32.2203 42.1971 31.829 43.464 31.0463 44.2129C30.2637 44.9617 29.1573 45.3333 27.7271 45.3277H27.347V47.473H27.7862C30.0835 47.4505 31.8374 46.8283 33.048 45.6064C34.2642 44.379 34.8723 42.7264 34.8723 40.6487V40.2095C34.8723 38.3401 34.4529 36.9888 33.6139 36.1554C32.7749 35.3165 31.691 34.897 30.3622 34.897C29.0277 34.897 27.9636 35.2827 27.1696 36.0541C26.3757 36.8255 25.9788 37.8559 25.9788 39.1453Z" fill="#242742"/>
<path d="M40.7423 47.4054H43.3521V35.1081H40.9112L35.4467 42.9797V44.8379H44.7119V42.7348H42.0429L41.6038 42.777H38.0902L40.7 38.6892H40.7845V43.875L40.7423 44.1706V47.4054Z" fill="#242742"/>
<defs>
<linearGradient id="paint0_linear_26_730" x1="35.1088" y1="16.5946" x2="35.1088" y2="66.8649" gradientUnits="userSpaceOnUse">
<stop stop-color="#FF6A3D"/>
<stop offset="1" stop-color="#FF5B66"/>
</linearGradient>
</defs>
</svg>
