<svg width="62" height="71" viewBox="0 0 62 71" fill="none" xmlns="http://www.w3.org/2000/svg">
<path d="M4.75684 2.16216C4.75684 0.968033 5.72487 0 6.919 0H55.5676C56.7618 0 57.7298 0.968033 57.7298 2.16216V68.1081C57.7298 69.3022 56.7618 70.2703 55.5676 70.2703H6.919C5.72487 70.2703 4.75684 69.3022 4.75684 68.1081V2.16216Z" fill="white"/>
<mask id="mask0_26_725" style="mask-type:alpha" maskUnits="userSpaceOnUse" x="4" y="0" width="54" height="71">
<path d="M4.75684 2.16216C4.75684 0.968033 5.72487 0 6.919 0H55.5676C56.7618 0 57.7298 0.968033 57.7298 2.16216V68.1081C57.7298 69.3022 56.7618 70.2703 55.5676 70.2703H6.919C5.72487 70.2703 4.75684 69.3022 4.75684 68.1081V2.16216Z" fill="white"/>
</mask>
<g mask="url(#mask0_26_725)">
<path fill-rule="evenodd" clip-rule="evenodd" d="M63.2008 15.6097C63.8343 16.2428 63.8346 17.2696 63.2015 17.903L49.5392 31.5737C47.1889 33.9254 43.3768 33.9254 41.0265 31.5737C39.943 30.4894 38.1854 30.4894 37.1019 31.5737L27.6796 41.0017C25.8496 42.8329 22.8813 42.8329 21.0513 41.0017C20.488 40.4381 19.5744 40.4381 19.0111 41.0017L1.57991 58.4436C0.946822 59.0771 -0.0799315 59.0774 -0.713408 58.4443C-1.34688 57.8112 -1.3472 56.7844 -0.714109 56.151L16.7171 38.7091C18.5471 36.878 21.5153 36.878 23.3453 38.7091C23.9086 39.2727 24.8223 39.2727 25.3856 38.7091L34.8078 29.2811C37.1581 26.9293 40.9703 26.9293 43.3206 29.2811C44.4041 30.3653 46.1617 30.3653 47.2452 29.2811L60.9075 15.6104C61.5406 14.9769 62.5674 14.9766 63.2008 15.6097Z" fill="url(#paint0_linear_26_725)"/>
</g>
<defs>
<linearGradient id="paint0_linear_26_725" x1="62.243" y1="14.8711" x2="3.79969" y2="58.0173" gradientUnits="userSpaceOnUse">
<stop stop-color="#FF9049"/>
<stop offset="1" stop-color="#FF5E5E"/>
</linearGradient>
</defs>
</svg>
