<svg width="251" height="205" viewBox="0 0 251 205" fill="none" xmlns="http://www.w3.org/2000/svg">
<g filter="url(#filter0_d_26_703)">
<path d="M-16 22.8377C-16 15.0759 -9.70778 8.78369 -1.94594 8.78369H204C211.762 8.78369 218.054 15.0759 218.054 22.8377V150.946C218.054 158.708 211.762 165 204 165H-1.94594C-9.70778 165 -16 158.708 -16 150.946V22.8377Z" fill="#242742"/>
</g>
<g filter="url(#filter1_d_26_703)">
<path d="M-7.35132 22.8378C-7.35132 19.5539 -4.68923 16.8918 -1.40537 16.8918H203.46C206.743 16.8918 209.405 19.5539 209.405 22.8378V150.946C209.405 154.23 206.743 156.892 203.46 156.892H-1.40537C-4.68923 156.892 -7.35132 154.23 -7.35132 150.946V22.8378Z" fill="url(#paint0_linear_26_703)"/>
</g>
<mask id="mask0_26_703" style="mask-type:alpha" maskUnits="userSpaceOnUse" x="-8" y="16" width="218" height="141">
<path d="M-7.35132 22.8378C-7.35132 19.5539 -4.68923 16.8918 -1.40537 16.8918H203.46C206.743 16.8918 209.405 19.5539 209.405 22.8378V150.946C209.405 154.23 206.743 156.892 203.46 156.892H-1.40537C-4.68923 156.892 -7.35132 154.23 -7.35132 150.946V22.8378Z" fill="url(#paint1_linear_26_703)"/>
</mask>
<g mask="url(#mask0_26_703)">
<circle cx="203.459" cy="148.784" r="85.4054" fill="url(#paint2_linear_26_703)"/>
<circle cx="66.4031" cy="-1.78616" r="85.4054" transform="rotate(-135 66.4031 -1.78616)" fill="url(#paint3_linear_26_703)"/>
</g>
<defs>
<filter id="filter0_d_26_703" x="-48" y="0.783691" width="298.054" height="220.216" filterUnits="userSpaceOnUse" color-interpolation-filters="sRGB">
<feFlood flood-opacity="0" result="BackgroundImageFix"/>
<feColorMatrix in="SourceAlpha" type="matrix" values="0 0 0 0 0 0 0 0 0 0 0 0 0 0 0 0 0 0 127 0" result="hardAlpha"/>
<feOffset dy="24"/>
<feGaussianBlur stdDeviation="16"/>
<feComposite in2="hardAlpha" operator="out"/>
<feColorMatrix type="matrix" values="0 0 0 0 0 0 0 0 0 0 0 0 0 0 0 0 0 0 0.1 0"/>
<feBlend mode="normal" in2="BackgroundImageFix" result="effect1_dropShadow_26_703"/>
<feBlend mode="normal" in="SourceGraphic" in2="effect1_dropShadow_26_703" result="shape"/>
</filter>
<filter id="filter1_d_26_703" x="-39.3513" y="8.89182" width="280.757" height="204" filterUnits="userSpaceOnUse" color-interpolation-filters="sRGB">
<feFlood flood-opacity="0" result="BackgroundImageFix"/>
<feColorMatrix in="SourceAlpha" type="matrix" values="0 0 0 0 0 0 0 0 0 0 0 0 0 0 0 0 0 0 127 0" result="hardAlpha"/>
<feOffset dy="24"/>
<feGaussianBlur stdDeviation="16"/>
<feComposite in2="hardAlpha" operator="out"/>
<feColorMatrix type="matrix" values="0 0 0 0 0 0 0 0 0 0 0 0 0 0 0 0 0 0 0.1 0"/>
<feBlend mode="normal" in2="BackgroundImageFix" result="effect1_dropShadow_26_703"/>
<feBlend mode="normal" in="SourceGraphic" in2="effect1_dropShadow_26_703" result="shape"/>
</filter>
<linearGradient id="paint0_linear_26_703" x1="41.0271" y1="14.7296" x2="207.514" y2="156.892" gradientUnits="userSpaceOnUse">
<stop stop-color="#FF3E83"/>
<stop offset="1" stop-color="#FF9F2E"/>
</linearGradient>
<linearGradient id="paint1_linear_26_703" x1="41.0271" y1="14.7296" x2="207.514" y2="156.892" gradientUnits="userSpaceOnUse">
<stop stop-color="#FF3E83"/>
<stop offset="1" stop-color="#FF9F2E"/>
</linearGradient>
<linearGradient id="paint2_linear_26_703" x1="203.459" y1="63.3783" x2="203.459" y2="234.189" gradientUnits="userSpaceOnUse">
<stop stop-color="#FFB443"/>
<stop offset="1" stop-color="#FF5B64" stop-opacity="0"/>
</linearGradient>
<linearGradient id="paint3_linear_26_703" x1="66.4031" y1="-87.1916" x2="66.4031" y2="83.6193" gradientUnits="userSpaceOnUse">
<stop stop-color="#FFB443"/>
<stop offset="1" stop-color="#FF5B64" stop-opacity="0"/>
</linearGradient>
</defs>
</svg>
